<?xml version="1.0" encoding="UTF-8" standalone="no"?>
<svg
   xmlns:dc="http://purl.org/dc/elements/1.1/"
   xmlns:cc="http://creativecommons.org/ns#"
   xmlns:rdf="http://www.w3.org/1999/02/22-rdf-syntax-ns#"
   xmlns:svg="http://www.w3.org/2000/svg"
   xmlns="http://www.w3.org/2000/svg"
   id="svg8"
   version="1.1"
   viewBox="0 0 1464.9999 230"
   height="230mm"
   width="1464.9999mm">
  <defs
     id="defs2" />
  <metadata
     id="metadata5">
    <rdf:RDF>
      <cc:Work
         rdf:about="">
        <dc:format>image/svg+xml</dc:format>
        <dc:type
           rdf:resource="http://purl.org/dc/dcmitype/StillImage" />
        <dc:title></dc:title>
        <dc:creator>
          <cc:Agent>
            <dc:title />
          </cc:Agent>
        </dc:creator>
      </cc:Work>
    </rdf:RDF>
  </metadata>
  <g
     style="display:inline;opacity:1"
     transform="translate(-25,67.999994)"
     id="layer1">
    <path
       style="fill:#efcb68;fill-opacity:1;stroke-width:0.41219643"
       d="M 27.896713,40.002962 108.00709,-40.10328 c 3.86229,-3.862286 10.12766,-3.862286 13.98995,0 l 9.34449,9.344488 c 3.85816,3.858159 3.86229,10.107067 0.0165,13.973467 L 67.867405,46.997938 131.3539,110.78535 c 3.84992,3.8664 3.84166,10.1153 -0.0165,13.97344 l -9.34447,9.34452 c -3.8623,3.86226 -10.12769,3.86226 -13.98996,0 L 27.896713,53.992912 c -3.862284,-3.862271 -3.862284,-10.127662 0,-13.98995 z"
       id="path57" />
    <path
       style="fill:#efcb68;fill-opacity:1;stroke-width:0.35156235"
       d="m 339.99996,120.12501 c 0,9.31993 -7.55509,16.87499 -16.87499,16.87499 H 176.87498 C 167.55506,137 160,129.44494 160,120.12501 V 27.567083 a 16.874995,16.874995 0 0 1 6.46417,-13.280644 c 8.75847,-6.8656504 15.99643,-12.4329824 57.72654,-42.718688 5.91504,-4.312604 17.65194,-14.689684 25.80924,-14.566635 8.15555,-0.124508 19.89706,10.255784 25.80929,14.566292 41.72587,30.2825246 48.97369,35.8575906 57.72652,42.719051 a 16.874995,16.874995 0 0 1 6.4642,13.280624 z m -23.0857,-69.118916 c -0.90107,-1.310625 -2.70703,-1.615429 -3.98636,-0.670429 -8.03145,5.931909 -19.49835,14.310343 -37.11866,27.098083 -5.91505,4.312262 -17.65198,14.688608 -25.80929,14.565218 -8.1601,0.12091 -19.88401,-10.245584 -25.80924,-14.565218 -17.61819,-12.78633 -29.08616,-21.165469 -37.11866,-27.098083 -1.27934,-0.945 -3.08532,-0.640196 -3.98637,0.670429 l -3.18937,4.639212 a 2.8117959,2.8117959 0 0 0 0.64652,3.855593 c 8.0462,5.941045 19.49555,14.305067 37.02057,27.023887 7.12758,5.19644 19.87171,16.809244 32.43655,16.724874 12.55925,0.0851 25.2988,-11.521044 32.43623,-16.724874 17.52538,-12.719163 28.97507,-21.083184 37.02057,-27.023887 a 2.8117959,2.8117959 0 0 0 0.64652,-3.855593 z"
       id="path149" />
    <path
       id="path3863"
       d="m 472.10327,40.002961 -80.11054,-80.106238 c -3.8623,-3.86229 -10.12769,-3.86229 -13.98998,0 l -9.34451,9.344487 c -3.85817,3.858158 -3.8623,10.107067 -0.0165,13.973466 l 63.49071,63.78326 -63.48662,63.787414 c -3.84993,3.8664 -3.84167,10.11529 0.0165,13.97343 l 9.34449,9.34453 c 3.8623,3.86226 10.12771,3.86226 13.98999,0 l 80.10646,-80.1104 c 3.8623,-3.862271 3.8623,-10.127662 0,-13.989949 z"
       style="fill:#efcb68;fill-opacity:1;stroke-width:0.41219684" />
    <flowRoot
       style="font-style:normal;font-variant:normal;font-weight:900;font-stretch:normal;font-size:192px;line-height:1.25;font-family:'Source Code Pro';-inkscape-font-specification:'Source Code Pro Heavy';letter-spacing:0px;word-spacing:0px;fill:#000000;fill-opacity:1;stroke:none"
       id="flowRoot34"
       xml:space="preserve"><flowRegion
         style="font-size:192px"
         id="flowRegion36"><rect
           style="font-size:192px"
           y="609.76379"
           x="1994.2858"
           height="891.42859"
           width="3588.5715"
           id="rect38" /></flowRegion><flowPara
         id="flowPara40" /></flowRoot>    <flowRoot
       transform="matrix(0.26458333,0,0,0.26458333,0,-203)"
       style="font-style:normal;font-variant:normal;font-weight:900;font-stretch:normal;font-size:192px;line-height:1.25;font-family:'Source Code Pro';-inkscape-font-specification:'Source Code Pro Heavy';letter-spacing:0px;word-spacing:0px;fill:#000000;fill-opacity:1;stroke:none"
       id="flowRoot42"
       xml:space="preserve"><flowRegion
         style="font-size:192px"
         id="flowRegion44"><rect
           style="font-size:192px"
           y="552.62091"
           x="1908.5714"
           height="1017.1429"
           width="3577.1428"
           id="rect46" /></flowRegion><flowPara
         id="flowPara48" /></flowRoot>    <flowRoot
       style="font-style:normal;font-variant:normal;font-weight:900;font-stretch:normal;font-size:40px;line-height:1.25;font-family:'Source Code Pro';-inkscape-font-specification:'Source Code Pro Heavy';letter-spacing:0px;word-spacing:0px;fill:#000000;fill-opacity:1;stroke:none"
       id="flowRoot50"
       xml:space="preserve"><flowRegion
         id="flowRegion52"><rect
           y="501.19235"
           x="1971.4286"
           height="1080"
           width="2434.2856"
           id="rect54" /></flowRegion><flowPara
         id="flowPara56" /></flowRoot>    <flowRoot
       style="font-style:normal;font-variant:normal;font-weight:900;font-stretch:normal;font-size:40px;line-height:1.25;font-family:'Source Code Pro';-inkscape-font-specification:'Source Code Pro Heavy';letter-spacing:0px;word-spacing:0px;fill:#000000;fill-opacity:1;stroke:none"
       id="flowRoot58"
       xml:space="preserve"><flowRegion
         id="flowRegion60"><rect
           y="495.47809"
           x="1891.4286"
           height="1200"
           width="3720"
           id="rect62" /></flowRegion><flowPara
         id="flowPara64" /></flowRoot>    <g
       id="flowRoot66"
       style="font-style:normal;font-variant:normal;font-weight:900;font-stretch:normal;font-size:666.66668701px;line-height:1.25;font-family:'Source Code Pro';-inkscape-font-specification:'Source Code Pro Heavy';letter-spacing:0px;word-spacing:0px;fill:#000000;fill-opacity:1;stroke:none"
       transform="matrix(0.27522935,0,0,0.27522935,-27.786088,-183.34117)"
       aria-label="Denvelope">
      <path
         id="path82"
         style="font-size:666.66668701px;line-height:1.25;text-align:center;text-anchor:middle;fill:#efcb68;fill-opacity:1"
         d="M 1992.7057,1010.2396 V 576.90625 h 124.6666 q 46.6667,0 85.3334,12 38.6666,12.00001 66.6667,38.00001 28,26 43.3333,66.66666 16,40.66667 16,98.00001 0,57.33333 -15.3333,98.66667 -15.3334,41.33333 -43.3334,68 -27.3333,26.66667 -64.6667,39.33333 -37.3333,12.66667 -81.3333,12.66667 z m 114.6666,-92 h 4 q 20.6667,0 38.6667,-5.33334 18.6667,-6 32,-20 13.3333,-14 21.3333,-38.66666 8,-24.66667 8,-62.66667 0,-38 -8,-62 -8,-24 -21.3333,-37.33334 -13.3333,-13.33333 -32,-18 -18,-5.33333 -38.6667,-5.33333 h -4 z" />
      <path
         id="path84"
         style="font-size:666.66668701px;line-height:1.25;text-align:center;text-anchor:middle;fill:#efcb68;fill-opacity:1"
         d="m 2569.7786,1018.2396 q -39.3333,0 -74,-11.3333 -34,-12.00003 -59.3333,-34.00003 -24.6667,-22.66667 -39.3334,-55.33334 -14,-32.66667 -14,-74 0,-40.66667 14.6667,-73.33334 14.6667,-32.66666 38.6667,-54.66666 24.6666,-22.66667 56,-34.66667 32,-12 65.3333,-12 39.3333,0 68.6667,12.66666 30,12.66667 50,34.66667 20,22 30,51.33334 10,29.33333 10,62.66667 0,15.33333 -2,28.66666 -1.3334,13.33334 -2.6667,19.33334 h -214 q 7.3333,28 29.3333,40.66667 22,12.66666 58.6667,12.66666 20,0 38.6667,-4.66666 19.3333,-5.33334 41.3333,-15.33334 l 37.3333,68 q -30,19.33334 -66,29.33337 -36,9.3333 -67.3333,9.3333 z m -8,-262.66667 q -49.3333,0 -63.3333,48 h 116.6666 q -7.3333,-48 -53.3333,-48 z" />
      <path
         id="path86"
         style="font-size:666.66668701px;line-height:1.25;text-align:center;text-anchor:middle;fill:#efcb68;fill-opacity:1"
         d="M 2792.1849,1010.2396 V 676.90626 h 93.3333 l 8,40 h 2.6667 q 20,-19.33334 47.3333,-33.33334 27.3333,-14.66666 64,-14.66666 55.3333,0 80.6667,37.33333 25.3333,36.66667 25.3333,98.66667 V 1010.2396 H 2998.8515 V 819.57293 q 0,-28 -8.6666,-40.66667 -8,-12.66667 -30,-12.66667 -16,0 -28,6.66667 -12,6.66667 -25.3334,18.66667 v 218.66667 z" />
      <path
         id="path88"
         style="font-size:666.66668701px;line-height:1.25;text-align:center;text-anchor:middle;fill:#efcb68;fill-opacity:1"
         d="m 3285.2578,1010.2396 -120,-333.33334 h 114.6666 l 43.3334,145.33334 q 7.3333,25.33333 13.3333,51.33333 6.6667,25.33333 14,52.66667 h 2.6667 q 7.3333,-27.33334 13.3333,-52.66667 6.6667,-26 14,-51.33333 l 43.3333,-145.33334 h 109.3334 l -116,333.33334 z" />
      <path
         id="path90"
         style="font-size:666.66668701px;line-height:1.25;text-align:center;text-anchor:middle;fill:#efcb68;fill-opacity:1"
         d="m 3768.9974,1018.2396 q -39.3333,0 -74,-11.3333 -34,-12.00003 -59.3333,-34.00003 -24.6667,-22.66667 -39.3334,-55.33334 -14,-32.66667 -14,-74 0,-40.66667 14.6667,-73.33334 14.6667,-32.66666 38.6667,-54.66666 24.6666,-22.66667 56,-34.66667 32,-12 65.3333,-12 39.3333,0 68.6667,12.66666 30,12.66667 50,34.66667 20,22 30,51.33334 10,29.33333 10,62.66667 0,15.33333 -2,28.66666 -1.3334,13.33334 -2.6667,19.33334 h -214 q 7.3333,28 29.3333,40.66667 22,12.66666 58.6667,12.66666 20,0 38.6667,-4.66666 19.3333,-5.33334 41.3333,-15.33334 l 37.3333,68 q -30,19.33334 -66,29.33337 -36,9.3333 -67.3333,9.3333 z m -8,-262.66667 q -49.3333,0 -63.3333,48 h 116.6666 q -7.3333,-48 -53.3333,-48 z" />
      <path
         id="path92"
         style="font-size:666.66668701px;line-height:1.25;text-align:center;text-anchor:middle;fill:#efcb68;fill-opacity:1"
         d="m 4209.4037,1018.2396 q -33.3334,0 -58.6667,-10.6667 -24.6667,-10.66663 -42,-29.3333 -16.6667,-19.33333 -25.3333,-46 -8,-26.66667 -8,-59.33334 V 635.57292 h -100 v -89.33333 h 214.6666 v 330.66667 q 0,14.66667 4.6667,24 4.6667,9.33334 11.3333,15.33334 7.3334,5.33333 16,8 9.3334,2 18,2 20.6667,0 48,-9.33334 l 24.6667,84.00004 q -13.3333,4 -25.3333,7.3333 -11.3334,3.3333 -23.3334,5.3333 -12,2 -25.3333,3.3334 -13.3333,1.3333 -29.3333,1.3333 z" />
      <path
         id="path94"
         style="font-size:666.66668701px;line-height:1.25;text-align:center;text-anchor:middle;fill:#efcb68;fill-opacity:1"
         d="m 4548.4765,1018.2396 q -33.3333,0 -64.6667,-11.3333 -30.6666,-12.00003 -54.6666,-34.00003 -24,-22.66667 -38.6667,-55.33334 -14,-32.66667 -14,-74 0,-41.33334 14,-74 14.6667,-32.66667 38.6667,-54.66667 24,-22.66667 54.6666,-34 31.3334,-12 64.6667,-12 32.6667,0 63.3333,12 31.3334,11.33333 55.3334,34 24,22 38.6667,54.66667 14.6666,32.66666 14.6666,74 0,41.33333 -14.6666,74 -14.6667,32.66667 -38.6667,55.33334 -24,22 -55.3334,34.00003 -30.6666,11.3333 -63.3333,11.3333 z m 0,-92 q 29.3333,0 42,-22 12.6667,-22.66667 12.6667,-60.66667 0,-38 -12.6667,-60 -12.6667,-22.66667 -42,-22.66667 -29.3333,0 -42,22.66667 -12.6667,22 -12.6667,60 0,38 12.6667,60.66667 12.6667,22 42,22 z" />
      <path
         id="path96"
         style="font-size:666.66668701px;line-height:1.25;text-align:center;text-anchor:middle;fill:#efcb68;fill-opacity:1"
         d="M 4790.8829,1127.5729 V 676.90626 h 93.3334 l 8,30.66667 h 2.6666 q 19.3334,-17.33334 43.3334,-28.00001 24.6666,-10.66666 50,-10.66666 30,0 54.6666,12 24.6667,12 41.3334,34 17.3333,22 26.6666,53.33333 9.3334,31.33334 9.3334,70.00001 0,43.33333 -12,76.66666 -12,33.33334 -32,56.66667 -19.3334,22.66667 -45.3334,34.66667 -25.3333,12 -52.6666,12 -42,0 -75.3334,-33.33333 h -2.6666 l 5.3333,50.66663 v 92 z m 160,-202.66663 q 10.6667,0 20,-4 9.3334,-4.66667 16,-14.66667 7.3334,-10 11.3334,-26 4.6666,-16.66667 4.6666,-40.66667 0,-41.33334 -12.6666,-59.33334 -12,-18 -36.6667,-18 -13.3333,0 -24.6667,5.33334 -11.3333,5.33333 -23.3333,18.66666 v 122.66667 q 10.6667,9.33334 22,12.66667 12,3.33334 23.3333,3.33334 z" />
      <path
         id="path98"
         style="font-size:666.66668701px;line-height:1.25;text-align:center;text-anchor:middle;fill:#efcb68;fill-opacity:1"
         d="m 5367.9558,1018.2396 q -39.3334,0 -74,-11.3333 -34,-12.00003 -59.3334,-34.00003 -24.6666,-22.66667 -39.3333,-55.33334 -14,-32.66667 -14,-74 0,-40.66667 14.6667,-73.33334 14.6666,-32.66666 38.6666,-54.66666 24.6667,-22.66667 56,-34.66667 32,-12 65.3334,-12 39.3333,0 68.6666,12.66666 30,12.66667 50,34.66667 20,22 30,51.33334 10,29.33333 10,62.66667 0,15.33333 -2,28.66666 -1.3333,13.33334 -2.6666,19.33334 h -214 q 7.3333,28 29.3333,40.66667 22,12.66666 58.6667,12.66666 20,0 38.6666,-4.66666 19.3334,-5.33334 41.3334,-15.33334 l 37.3333,68 q -30,19.33334 -66,29.33337 -36,9.3333 -67.3333,9.3333 z m -8,-262.66667 q -49.3334,0 -63.3334,48 h 116.6667 q -7.3333,-48 -53.3333,-48 z" />
    </g>
    <flowRoot
       style="font-style:normal;font-variant:normal;font-weight:900;font-stretch:normal;font-size:40px;line-height:1.25;font-family:'Source Code Pro';-inkscape-font-specification:'Source Code Pro Heavy';letter-spacing:0px;word-spacing:0px;fill:#000000;fill-opacity:1;stroke:none"
       id="flowRoot74"
       xml:space="preserve"><flowRegion
         id="flowRegion76"><rect
           y="464.0495"
           x="2840"
           height="51.42857"
           width="31.428572"
           id="rect78" /></flowRegion><flowPara
         id="flowPara80" /></flowRoot>    <flowRoot
       style="font-style:normal;font-variant:normal;font-weight:900;font-stretch:normal;font-size:40px;line-height:1.25;font-family:'Source Code Pro';-inkscape-font-specification:'Source Code Pro Heavy';letter-spacing:0px;word-spacing:0px;fill:#000000;fill-opacity:1;stroke:none"
       id="flowRoot82"
       xml:space="preserve"><flowRegion
         id="flowRegion84"><rect
           y="957.26672"
           x="2916.8154"
           height="1595.4097"
           width="1414.2136"
           id="rect86" /></flowRegion><flowPara
         id="flowPara88" /></flowRoot>  </g>
</svg>
