<?xml version="1.0" encoding="UTF-8" standalone="no"?>
<svg
   xmlns:dc="http://purl.org/dc/elements/1.1/"
   xmlns:cc="http://creativecommons.org/ns#"
   xmlns:rdf="http://www.w3.org/1999/02/22-rdf-syntax-ns#"
   xmlns:svg="http://www.w3.org/2000/svg"
   xmlns="http://www.w3.org/2000/svg"
   id="svg8"
   version="1.1"
   viewBox="0 0 500 500"
   height="500mm"
   width="500mm">
  <defs
     id="defs2" />
  <metadata
     id="metadata5">
    <rdf:RDF>
      <cc:Work
         rdf:about="">
        <dc:format>image/svg+xml</dc:format>
        <dc:type
           rdf:resource="http://purl.org/dc/dcmitype/StillImage" />
        <dc:title></dc:title>
        <dc:creator>
          <cc:Agent>
            <dc:title />
          </cc:Agent>
        </dc:creator>
      </cc:Work>
    </rdf:RDF>
  </metadata>
  <g
     id="layer2">
    <rect
       clip-path="none"
       y="5.6843419e-14"
       x="0"
       height="500"
       width="500"
       id="rect37"
       style="opacity:1;fill:#160c28;fill-opacity:1;stroke-width:0.26458332" />
  </g>
  <g
     style="display:inline;opacity:1"
     transform="translate(0,203)"
     id="layer1">
    <path
       style="fill:#efcb68;fill-opacity:1;stroke-width:0.41219643"
       d="M 27.896713,40.002952 108.00709,-40.10329 c 3.8623,-3.862286 10.12766,-3.862286 13.98995,0 l 9.34449,9.344488 c 3.85816,3.858159 3.86229,10.107067 0.0165,13.973467 L 67.867405,46.997928 131.3539,110.78535 c 3.84992,3.8664 3.84166,10.1153 -0.0165,13.97344 l -9.34447,9.34452 c -3.8623,3.86226 -10.12768,3.86226 -13.98996,0 L 27.896713,53.992902 c -3.862284,-3.862271 -3.862284,-10.127662 0,-13.98995 z"
       id="path57" />
    <path
       style="fill:#efcb68;fill-opacity:1;stroke-width:0.35156235"
       d="m 339.99996,120.12501 c 0,9.31993 -7.55509,16.87499 -16.87499,16.87499 H 176.87498 C 167.55506,137 160,129.44494 160,120.12501 V 27.567075 a 16.874995,16.874995 0 0 1 6.46417,-13.280644 c 8.75847,-6.865651 15.99643,-12.432983 57.72654,-42.718688 5.91504,-4.312604 17.65194,-14.689684 25.80924,-14.566635 8.15555,-0.124508 19.89706,10.255784 25.80929,14.566292 41.72587,30.282524 48.97369,35.85759 57.72652,42.719051 a 16.874995,16.874995 0 0 1 6.4642,13.280624 z m -23.0857,-69.118924 c -0.90107,-1.310625 -2.70703,-1.615429 -3.98636,-0.670429 -8.03145,5.931909 -19.49835,14.310343 -37.11866,27.098083 -5.91505,4.312262 -17.65198,14.68861 -25.80929,14.56522 -8.1601,0.12091 -19.88401,-10.245586 -25.80924,-14.56522 -17.61819,-12.78633 -29.08616,-21.165469 -37.11866,-27.098083 -1.27934,-0.945 -3.08532,-0.640196 -3.98637,0.670429 l -3.18937,4.639212 a 2.8117959,2.8117959 0 0 0 0.64652,3.855593 c 8.0462,5.941045 19.49555,14.305067 37.02057,27.023889 7.12758,5.19644 19.87171,16.80925 32.43655,16.72488 12.55925,0.0851 25.2988,-11.52105 32.43623,-16.72488 17.52538,-12.719165 28.97507,-21.083186 37.02057,-27.023889 a 2.8117959,2.8117959 0 0 0 0.64652,-3.855593 z"
       id="path149" />
    <path
       id="path3863"
       d="M 472.10305,40.002958 391.99268,-40.10328 c -3.86229,-3.86229 -10.12766,-3.86229 -13.98995,0 l -9.34449,9.344487 c -3.85816,3.858158 -3.86229,10.107066 -0.0165,13.973466 l 63.49058,63.78326 -63.48649,63.787417 c -3.84992,3.8664 -3.84166,10.11529 0.0165,13.97343 l 9.34447,9.34453 c 3.8623,3.86226 10.12769,3.86226 13.98996,0 l 80.10629,-80.110403 c 3.86229,-3.862271 3.86229,-10.127662 0,-13.989949 z"
       style="fill:#efcb68;fill-opacity:1;stroke-width:0.4121964" />
  </g>
</svg>
