<?xml version="1.0" standalone="no"?>
<!DOCTYPE svg PUBLIC "-//W3C//DTD SVG 20010904//EN"
 "http://www.w3.org/TR/2001/REC-SVG-20010904/DTD/svg10.dtd">
<svg version="1.0" xmlns="http://www.w3.org/2000/svg"
 width="700.000000pt" height="700.000000pt" viewBox="0 0 700.000000 700.000000"
 preserveAspectRatio="xMidYMid meet">
<metadata>
Created by potrace 1.11, written by Peter Selinger 2001-2013
</metadata>
<g transform="translate(0.000000,700.000000) scale(0.100000,-0.100000)"
fill="#000000" stroke="none">
<path d="M1545 4742 c-38 -24 -1140 -1125 -1172 -1171 -26 -38 -30 -92 -9
-130 19 -34 1156 -1170 1188 -1187 34 -18 81 -18 116 0 15 8 66 54 113 103 97
99 114 139 86 204 -9 20 -200 220 -466 487 l-451 453 452 454 c490 491 493
495 470 572 -11 37 -135 175 -188 209 -37 25 -104 27 -139 6z"/>
<path d="M3409 4737 c-62 -26 -77 -36 -234 -152 -60 -45 -227 -167 -370 -272
-238 -174 -342 -251 -434 -322 -66 -50 -102 -95 -117 -147 -12 -44 -14 -154
-12 -745 3 -772 -1 -724 72 -791 73 -68 -24 -63 1186 -63 l1095 0 40 24 c48
30 79 61 103 104 16 29 17 88 20 731 3 789 5 760 -71 834 -34 34 -240 193
-337 262 -11 8 -70 51 -130 95 -59 44 -139 102 -177 129 -37 28 -120 88 -183
135 -218 162 -266 190 -345 197 -38 4 -64 -1 -106 -19z m-611 -1414 c103 -75
248 -182 322 -237 363 -270 389 -273 671 -64 386 285 600 438 616 438 24 0 86
-91 77 -113 -3 -10 -54 -52 -113 -94 -58 -43 -108 -80 -111 -83 -3 -3 -45 -34
-95 -70 -49 -35 -158 -114 -241 -176 -228 -170 -319 -213 -439 -209 -113 4
-198 50 -460 246 -127 95 -268 198 -393 287 -26 19 -65 49 -87 67 l-40 33 19
36 c24 46 53 76 72 76 8 0 99 -62 202 -137z"/>
<path d="M5333 4747 c-27 -15 -169 -152 -188 -181 -22 -33 -28 -90 -13 -125 7
-17 215 -234 465 -485 l453 -454 -455 -459 c-292 -294 -459 -469 -465 -488
-11 -33 -8 -82 6 -107 15 -27 147 -160 183 -185 39 -26 77 -29 124 -9 39 17
1177 1153 1194 1193 16 37 15 82 -1 112 -19 35 -1156 1170 -1186 1185 -34 17
-91 18 -117 3z"/>
</g>
</svg>
