<?xml version="1.0" encoding="UTF-8" standalone="no"?>
<!-- Created with Inkscape (http://www.inkscape.org/) -->

<svg
   xmlns:dc="http://purl.org/dc/elements/1.1/"
   xmlns:cc="http://creativecommons.org/ns#"
   xmlns:rdf="http://www.w3.org/1999/02/22-rdf-syntax-ns#"
   xmlns:svg="http://www.w3.org/2000/svg"
   xmlns="http://www.w3.org/2000/svg"
   xmlns:sodipodi="http://sodipodi.sourceforge.net/DTD/sodipodi-0.dtd"
   xmlns:inkscape="http://www.inkscape.org/namespaces/inkscape"
   width="1514.9999mm"
   height="230mm"
   viewBox="0 0 1514.9999 230"
   version="1.1"
   id="svg8"
   inkscape:version="0.92.4 (5da689c313, 2019-01-14)"
   sodipodi:docname="denvelope_logo.svg">
  <defs
     id="defs2" />
  <sodipodi:namedview
     id="base"
     pagecolor="#ffffff"
     bordercolor="#666666"
     borderopacity="1.0"
     inkscape:pageopacity="0"
     inkscape:pageshadow="2"
     inkscape:zoom="0.22627417"
     inkscape:cx="2473.475"
     inkscape:cy="-138.10877"
     inkscape:document-units="mm"
     inkscape:current-layer="layer1"
     showgrid="false"
     inkscape:pagecheckerboard="true"
     showborder="true"
     borderlayer="false"
     inkscape:showpageshadow="false"
     inkscape:window-width="1920"
     inkscape:window-height="1017"
     inkscape:window-x="-8"
     inkscape:window-y="-8"
     inkscape:window-maximized="1"
     fit-margin-left="25"
     fit-margin-top="25"
     fit-margin-bottom="25"
     fit-margin-right="25" />
  <metadata
     id="metadata5">
    <rdf:RDF>
      <cc:Work
         rdf:about="">
        <dc:format>image/svg+xml</dc:format>
        <dc:type
           rdf:resource="http://purl.org/dc/dcmitype/StillImage" />
        <dc:title></dc:title>
        <dc:creator>
          <cc:Agent>
            <dc:title />
          </cc:Agent>
        </dc:creator>
      </cc:Work>
    </rdf:RDF>
  </metadata>
  <g
     inkscape:label="Logo"
     inkscape:groupmode="layer"
     id="layer1"
     transform="translate(0,67.999995)"
     style="display:inline;opacity:1">
    <path
       id="path57"
       d="M 27.896713,40.002962 108.00709,-40.10328 c 3.86229,-3.862286 10.12766,-3.862286 13.98995,0 l 9.34449,9.344488 c 3.85816,3.858159 3.86229,10.107067 0.0165,13.973467 L 67.867405,46.997938 131.3539,110.78535 c 3.84992,3.8664 3.84166,10.1153 -0.0165,13.97344 l -9.34447,9.34452 c -3.8623,3.86226 -10.12769,3.86226 -13.98996,0 L 27.896713,53.992912 c -3.862284,-3.862271 -3.862284,-10.127662 0,-13.98995 z"
       inkscape:connector-curvature="0"
       style="fill:#efcb68;fill-opacity:1;stroke-width:0.41219643" />
    <path
       id="path149"
       d="m 339.99996,120.12501 c 0,9.31993 -7.55509,16.87499 -16.87499,16.87499 H 176.87498 C 167.55506,137 160,129.44494 160,120.12501 V 27.567083 a 16.874995,16.874995 0 0 1 6.46417,-13.280644 c 8.75847,-6.8656504 15.99643,-12.4329824 57.72654,-42.718688 5.91504,-4.312604 17.65194,-14.689684 25.80924,-14.566635 8.15555,-0.124508 19.89706,10.255784 25.80929,14.566292 41.72587,30.2825246 48.97369,35.8575906 57.72652,42.719051 a 16.874995,16.874995 0 0 1 6.4642,13.280624 z m -23.0857,-69.118916 c -0.90107,-1.310625 -2.70703,-1.615429 -3.98636,-0.670429 -8.03145,5.931909 -19.49835,14.310343 -37.11866,27.098083 -5.91505,4.312262 -17.65198,14.688608 -25.80929,14.565218 -8.1601,0.12091 -19.88401,-10.245584 -25.80924,-14.565218 -17.61819,-12.78633 -29.08616,-21.165469 -37.11866,-27.098083 -1.27934,-0.945 -3.08532,-0.640196 -3.98637,0.670429 l -3.18937,4.639212 a 2.8117959,2.8117959 0 0 0 0.64652,3.855593 c 8.0462,5.941045 19.49555,14.305067 37.02057,27.023887 7.12758,5.19644 19.87171,16.809244 32.43655,16.724874 12.55925,0.0851 25.2988,-11.521044 32.43623,-16.724874 17.52538,-12.719163 28.97507,-21.083184 37.02057,-27.023887 a 2.8117959,2.8117959 0 0 0 0.64652,-3.855593 z"
       inkscape:connector-curvature="0"
       style="fill:#efcb68;fill-opacity:1;stroke-width:0.35156235" />
    <path
       style="fill:#efcb68;fill-opacity:1;stroke-width:0.41219684"
       inkscape:connector-curvature="0"
       d="m 472.10327,40.002961 -80.11054,-80.106238 c -3.8623,-3.86229 -10.12769,-3.86229 -13.98998,0 l -9.34451,9.344487 c -3.85817,3.858158 -3.8623,10.107067 -0.0165,13.973466 l 63.49071,63.78326 -63.48662,63.787414 c -3.84993,3.8664 -3.84167,10.11529 0.0165,13.97343 l 9.34449,9.34453 c 3.8623,3.86226 10.12771,3.86226 13.98999,0 l 80.10646,-80.1104 c 3.8623,-3.862271 3.8623,-10.127662 0,-13.989949 z"
       id="path3863" />
    <flowRoot
       xml:space="preserve"
       id="flowRoot34"
       style="font-style:normal;font-variant:normal;font-weight:900;font-stretch:normal;font-size:192px;line-height:1.25;font-family:'Source Code Pro';-inkscape-font-specification:'Source Code Pro Heavy';letter-spacing:0px;word-spacing:0px;fill:#000000;fill-opacity:1;stroke:none"><flowRegion
         id="flowRegion36"
         style="font-size:192px"><rect
           id="rect38"
           width="3588.5715"
           height="891.42859"
           x="1994.2858"
           y="609.76379"
           style="font-size:192px" /></flowRegion><flowPara
         id="flowPara40" /></flowRoot>    <flowRoot
       xml:space="preserve"
       id="flowRoot42"
       style="font-style:normal;font-variant:normal;font-weight:900;font-stretch:normal;font-size:192px;line-height:1.25;font-family:'Source Code Pro';-inkscape-font-specification:'Source Code Pro Heavy';letter-spacing:0px;word-spacing:0px;fill:#000000;fill-opacity:1;stroke:none"
       transform="matrix(0.26458333,0,0,0.26458333,0,-203)"><flowRegion
         id="flowRegion44"
         style="font-size:192px"><rect
           id="rect46"
           width="3577.1428"
           height="1017.1429"
           x="1908.5714"
           y="552.62091"
           style="font-size:192px" /></flowRegion><flowPara
         id="flowPara48" /></flowRoot>    <flowRoot
       xml:space="preserve"
       id="flowRoot50"
       style="font-style:normal;font-variant:normal;font-weight:900;font-stretch:normal;font-size:40px;line-height:1.25;font-family:'Source Code Pro';-inkscape-font-specification:'Source Code Pro Heavy';letter-spacing:0px;word-spacing:0px;fill:#000000;fill-opacity:1;stroke:none"><flowRegion
         id="flowRegion52"><rect
           id="rect54"
           width="2434.2856"
           height="1080"
           x="1971.4286"
           y="501.19235" /></flowRegion><flowPara
         id="flowPara56" /></flowRoot>    <flowRoot
       xml:space="preserve"
       id="flowRoot58"
       style="font-style:normal;font-variant:normal;font-weight:900;font-stretch:normal;font-size:40px;line-height:1.25;font-family:'Source Code Pro';-inkscape-font-specification:'Source Code Pro Heavy';letter-spacing:0px;word-spacing:0px;fill:#000000;fill-opacity:1;stroke:none"><flowRegion
         id="flowRegion60"><rect
           id="rect62"
           width="3720"
           height="1200"
           x="1891.4286"
           y="495.47809" /></flowRegion><flowPara
         id="flowPara64" /></flowRoot>    <flowRoot
       xml:space="preserve"
       id="flowRoot66"
       style="font-style:normal;font-variant:normal;font-weight:900;font-stretch:normal;font-size:666.66668701px;line-height:1.25;font-family:'Source Code Pro';-inkscape-font-specification:'Source Code Pro Heavy';letter-spacing:0px;word-spacing:0px;fill:#000000;fill-opacity:1;stroke:none"
       transform="matrix(0.27522935,0,0,0.27522935,-27.786088,-183.34117)"><flowRegion
         id="flowRegion68"
         style="font-size:666.66668701px"><rect
           id="rect70"
           width="3600.5913"
           height="752.3717"
           x="1948.5714"
           y="426.90665"
           style="font-size:666.66668701px" /></flowRegion><flowPara
         id="flowPara72"
         style="font-size:666.66668701px;line-height:1.25;text-align:center;text-anchor:middle;fill:#efcb68;fill-opacity:1">Denvelope</flowPara></flowRoot>    <flowRoot
       xml:space="preserve"
       id="flowRoot74"
       style="font-style:normal;font-variant:normal;font-weight:900;font-stretch:normal;font-size:40px;line-height:1.25;font-family:'Source Code Pro';-inkscape-font-specification:'Source Code Pro Heavy';letter-spacing:0px;word-spacing:0px;fill:#000000;fill-opacity:1;stroke:none"><flowRegion
         id="flowRegion76"><rect
           id="rect78"
           width="31.428572"
           height="51.42857"
           x="2840"
           y="464.0495" /></flowRegion><flowPara
         id="flowPara80" /></flowRoot>    <flowRoot
       xml:space="preserve"
       id="flowRoot82"
       style="font-style:normal;font-variant:normal;font-weight:900;font-stretch:normal;font-size:40px;line-height:1.25;font-family:'Source Code Pro';-inkscape-font-specification:'Source Code Pro Heavy';letter-spacing:0px;word-spacing:0px;fill:#000000;fill-opacity:1;stroke:none"><flowRegion
         id="flowRegion84"><rect
           id="rect86"
           width="1414.2136"
           height="1595.4097"
           x="2916.8154"
           y="957.26672" /></flowRegion><flowPara
         id="flowPara88" /></flowRoot>  </g>
</svg>
