<?xml version="1.0" encoding="UTF-8" standalone="no"?>
<svg
   xmlns:dc="http://purl.org/dc/elements/1.1/"
   xmlns:cc="http://creativecommons.org/ns#"
   xmlns:rdf="http://www.w3.org/1999/02/22-rdf-syntax-ns#"
   xmlns:svg="http://www.w3.org/2000/svg"
   xmlns="http://www.w3.org/2000/svg"
   xmlns:sodipodi="http://sodipodi.sourceforge.net/DTD/sodipodi-0.dtd"
   xmlns:inkscape="http://www.inkscape.org/namespaces/inkscape"
   height="1024"
   width="1024"
   id="svg22"
   version="1.1"
   viewBox="0 0 1024 1024"
   sodipodi:docname="create-folder.svg"
   inkscape:version="0.92.4 (5da689c313, 2019-01-14)">
  <sodipodi:namedview
     pagecolor="#ffffff"
     bordercolor="#666666"
     borderopacity="1"
     objecttolerance="10"
     gridtolerance="10"
     guidetolerance="10"
     inkscape:pageopacity="0"
     inkscape:pageshadow="2"
     inkscape:window-width="1920"
     inkscape:window-height="1017"
     id="namedview26"
     showgrid="false"
     inkscape:zoom="0.58695387"
     inkscape:cx="381.75956"
     inkscape:cy="424.17503"
     inkscape:window-x="-8"
     inkscape:window-y="-8"
     inkscape:window-maximized="1"
     inkscape:current-layer="layer4"
     inkscape:showpageshadow="false" />
  <metadata
     id="metadata28">
    <rdf:RDF>
      <cc:Work
         rdf:about="">
        <dc:format>image/svg+xml</dc:format>
        <dc:type
           rdf:resource="http://purl.org/dc/dcmitype/StillImage" />
        <dc:title></dc:title>
      </cc:Work>
    </rdf:RDF>
  </metadata>
  <defs
     id="defs26" />
  <g
     inkscape:groupmode="layer"
     id="layer3"
     inkscape:label="Background"
     style="display:inline">
    <circle
       style="opacity:1;fill:#160c28;fill-opacity:1"
       id="path34"
       cx="512"
       cy="512"
       r="512" />
  </g>
  <g
     inkscape:groupmode="layer"
     id="layer4"
     inkscape:label="Icon"
     style="display:inline">
    <g
       style="display:inline"
       id="layer2"
       transform="matrix(1.2011719,0,0,1.2011719,-102.90078,-103.07441)">
      <path
         style="fill:#efcb68;fill-opacity:1"
         id="path20"
         d="M 720,384 H 528 L 464,320 H 304 c -26.51,0 -48,21.49 -48,48 v 288 c 0,26.51 21.49,48 48,48 h 416 c 26.51,0 48,-21.49 48,-48 V 432 c 0,-26.51 -21.49,-48 -48,-48 z m -96,168 c 0,8.84 -7.16,16 -16,16 h -72 v 72 c 0,8.84 -7.16,16 -16,16 h -16 c -8.84,0 -16,-7.16 -16,-16 v -72 h -72 c -8.84,0 -16,-7.16 -16,-16 v -16 c 0,-8.84 7.16,-16 16,-16 h 72 v -72 c 0,-8.84 7.16,-16 16,-16 h 16 c 8.84,0 16,7.16 16,16 v 72 h 72 c 8.84,0 16,7.16 16,16 z"
         inkscape:connector-curvature="0" />
    </g>
  </g>
</svg>
