<?xml version="1.0" encoding="UTF-8" standalone="no"?>
<svg
   xmlns:dc="http://purl.org/dc/elements/1.1/"
   xmlns:cc="http://creativecommons.org/ns#"
   xmlns:rdf="http://www.w3.org/1999/02/22-rdf-syntax-ns#"
   xmlns:svg="http://www.w3.org/2000/svg"
   xmlns="http://www.w3.org/2000/svg"
   height="1024"
   width="1024"
   id="svg22"
   version="1.1"
   viewBox="0 0 1024 1024">
  <metadata
     id="metadata28">
    <rdf:RDF>
      <cc:Work
         rdf:about="">
        <dc:format>image/svg+xml</dc:format>
        <dc:type
           rdf:resource="http://purl.org/dc/dcmitype/StillImage" />
        <dc:title></dc:title>
      </cc:Work>
    </rdf:RDF>
  </metadata>
  <defs
     id="defs26" />
  <g
     id="layer1">
    <rect
       y="0"
       x="0"
       height="1024"
       width="1024"
       id="rect838"
       style="opacity:1;fill:#160c28;fill-opacity:1" />
  </g>
  <g
     style="display:inline"
     id="layer2">
    <path
       style="fill:#efcb68;fill-opacity:1"
       id="path20"
       d="M 720,384 H 528 L 464,320 H 304 c -26.51,0 -48,21.49 -48,48 v 288 c 0,26.51 21.49,48 48,48 h 416 c 26.51,0 48,-21.49 48,-48 V 432 c 0,-26.51 -21.49,-48 -48,-48 z m -96,168 c 0,8.84 -7.16,16 -16,16 h -72 v 72 c 0,8.84 -7.16,16 -16,16 h -16 c -8.84,0 -16,-7.16 -16,-16 v -72 h -72 c -8.84,0 -16,-7.16 -16,-16 v -16 c 0,-8.84 7.16,-16 16,-16 h 72 v -72 c 0,-8.84 7.16,-16 16,-16 h 16 c 8.84,0 16,7.16 16,16 v 72 h 72 c 8.84,0 16,7.16 16,16 z" />
  </g>
</svg>
